<?xml version="1.0" encoding="UTF-8" standalone="no"?>
<svg
   version="1.1"
   viewBox="0 0 132 82.352943"
   id="svg13"
   sodipodi:docname="half-adder.svg"
   inkscape:version="1.3.2 (091e20ef0f, 2023-11-25, custom)"
   width="132"
   height="82.352943"
   xmlns:inkscape="http://www.inkscape.org/namespaces/inkscape"
   xmlns:sodipodi="http://sodipodi.sourceforge.net/DTD/sodipodi-0.dtd"
   xmlns="http://www.w3.org/2000/svg"
   xmlns:svg="http://www.w3.org/2000/svg">
  <defs
     id="defs13" />
  <sodipodi:namedview
     id="namedview13"
     pagecolor="#ffffff"
     bordercolor="#666666"
     borderopacity="1.0"
     inkscape:showpageshadow="2"
     inkscape:pageopacity="0.0"
     inkscape:pagecheckerboard="0"
     inkscape:deskcolor="#d1d1d1"
     inkscape:zoom="2.9634551"
     inkscape:cx="98.871076"
     inkscape:cy="42.855381"
     inkscape:window-width="3836"
     inkscape:window-height="2086"
     inkscape:window-x="0"
     inkscape:window-y="1272"
     inkscape:window-maximized="1"
     inkscape:current-layer="svg13" />
  <polyline
     fill="none"
     points="158,25 178,25"
     stroke="#000000"
     stroke-linecap="square"
     stroke-width="3"
     id="polyline1"
     transform="translate(-51.5,-9)" />
  <polyline
     fill="none"
     points="158,75 178,75"
     stroke="#000000"
     stroke-linecap="square"
     stroke-width="3"
     id="polyline2"
     transform="translate(-51.5,-9)" />
  <circle
     cx="26.5"
     cy="76"
     fill="#000000"
     stroke="none"
     stroke-width="3"
     id="ellipse2"
     r="5" />
  <circle
     cx="46.5"
     cy="6"
     fill="#000000"
     stroke="none"
     stroke-width="3"
     id="ellipse3"
     r="5" />
  <path
     d="m 91.5,31 a 15,15 0 0 0 0,-30"
     fill="none"
     stroke="#000000"
     stroke-width="2"
     id="path3" />
  <polyline
     fill="none"
     points="143,10 129,10 129,40 143,40"
     stroke="#000000"
     stroke-linecap="square"
     stroke-width="2"
     id="polyline3"
     transform="translate(-51.5,-9)" />
  <polyline
     fill="none"
     points="128,15 98,15 98,65 118,65 118,65"
     stroke="#000000"
     stroke-linecap="square"
     stroke-width="3"
     id="polyline4"
     transform="translate(-51.5,-9)" />
  <polyline
     fill="none"
     points="118,85 118,85 78,85 78,35 128,35"
     stroke="#000000"
     stroke-linecap="square"
     stroke-width="3"
     id="polyline5"
     transform="translate(-51.5,-9)" />
  <path
     d="m 106.5,66 c -10,-15 -10,-15 -30,-15 8,15 8,15 0,30 20,0 20,0 30,-15 z"
     fill="none"
     stroke="#000000"
     stroke-linecap="square"
     stroke-width="2"
     id="path5" />
  <path
     d="m 66.5,51 c 8,15 8,15 0,30"
     fill="none"
     stroke="#000000"
     stroke-linecap="square"
     stroke-width="2"
     id="path6" />
  <polyline
     fill="none"
     points="182,75 179,75"
     stroke="#000000"
     stroke-linecap="square"
     stroke-width="3"
     id="polyline6"
     transform="translate(-51.5,-9)" />
  <circle
     cx="126.5"
     cy="66"
     fill="#000000"
     stroke="none"
     stroke-width="2"
     id="ellipse7"
     r="2" />
  <polyline
     fill="none"
     points="182,25 179,25"
     stroke="#000000"
     stroke-linecap="square"
     stroke-width="3"
     id="polyline7"
     transform="translate(-51.5,-9)" />
  <circle
     cx="126.5"
     cy="16"
     fill="#000000"
     stroke="none"
     stroke-width="2"
     id="ellipse9"
     r="2" />
  <polyline
     fill="none"
     points="53,85 58,85 78,85"
     stroke="#000000"
     stroke-linecap="square"
     stroke-width="3"
     id="polyline9"
     transform="translate(-51.5,-9)" />
  <circle
     cx="6.5"
     cy="76"
     fill="#000000"
     stroke="none"
     stroke-width="2"
     id="ellipse11"
     r="2" />
  <polyline
     fill="none"
     points="53,15 58,15 98,15"
     stroke="#000000"
     stroke-linecap="square"
     stroke-width="3"
     id="polyline11"
     transform="translate(-51.5,-9)" />
  <circle
     cx="6.5"
     cy="6"
     fill="#000000"
     stroke="none"
     stroke-width="2"
     id="ellipse13"
     r="2" />
</svg>
